<svg width="1600" height="1200" viewBox="0 0 1600 1200" fill="none" xmlns="http://www.w3.org/2000/svg">
  <defs>
    <radialGradient id="glowA" cx="0" cy="0" r="1" gradientUnits="userSpaceOnUse" gradientTransform="translate(1180 250) rotate(90) scale(280 360)">
      <stop stop-color="#60A5FA" stop-opacity="0.26" />
      <stop offset="1" stop-color="#60A5FA" stop-opacity="0" />
    </radialGradient>
    <radialGradient id="glowB" cx="0" cy="0" r="1" gradientUnits="userSpaceOnUse" gradientTransform="translate(980 840) rotate(90) scale(240 320)">
      <stop stop-color="#93C5FD" stop-opacity="0.18" />
      <stop offset="1" stop-color="#93C5FD" stop-opacity="0" />
    </radialGradient>
    <linearGradient id="strokeA" x1="746" y1="184" x2="1340" y2="620" gradientUnits="userSpaceOnUse">
      <stop stop-color="#60A5FA" stop-opacity="0.4" />
      <stop offset="1" stop-color="#1E293B" stop-opacity="0.14" />
    </linearGradient>
    <linearGradient id="panelStroke" x1="0" y1="0" x2="1" y2="1">
      <stop stop-color="#FFFFFF" stop-opacity="0.34" />
      <stop offset="1" stop-color="#93C5FD" stop-opacity="0.08" />
    </linearGradient>
    <filter id="blurA" x="680" y="70" width="700" height="620" filterUnits="userSpaceOnUse" color-interpolation-filters="sRGB">
      <feGaussianBlur stdDeviation="44" />
    </filter>
    <filter id="blurB" x="650" y="580" width="700" height="520" filterUnits="userSpaceOnUse" color-interpolation-filters="sRGB">
      <feGaussianBlur stdDeviation="52" />
    </filter>
  </defs>

  <g opacity="0.92">
    <g filter="url(#blurA)">
      <ellipse cx="1030" cy="380" rx="220" ry="170" fill="url(#glowA)" />
    </g>
    <g filter="url(#blurB)">
      <ellipse cx="1010" cy="820" rx="200" ry="150" fill="url(#glowB)" />
    </g>
  </g>

  <g opacity="0.24">
    <path d="M748 198C838 144 964 126 1088 182C1206 236 1292 350 1330 492" stroke="url(#strokeA)" stroke-width="1.8" stroke-dasharray="5 11" />
    <path d="M776 268C860 220 972 214 1072 260C1156 300 1232 376 1266 472" stroke="url(#strokeA)" stroke-width="1.4" stroke-dasharray="4 12" />
    <path d="M762 726C818 650 922 594 1038 596C1154 598 1262 660 1328 776" stroke="url(#strokeA)" stroke-width="1.4" stroke-dasharray="5 12" />
  </g>

  <g opacity="0.24">
    <circle cx="748" cy="198" r="6" fill="#60A5FA" />
    <circle cx="1328" cy="776" r="7" fill="#93C5FD" />
    <circle cx="1266" cy="472" r="5" fill="#BFDBFE" />
  </g>

  <g opacity="0.2">
    <path d="M902 214H1266" stroke="#CBD5E1" stroke-width="1" />
    <path d="M902 250H1290" stroke="#CBD5E1" stroke-width="1" />
    <path d="M870 786H1280" stroke="#CBD5E1" stroke-width="1" />
    <path d="M892 822H1240" stroke="#CBD5E1" stroke-width="1" />
  </g>

  <g opacity="0.52">
    <rect x="962" y="246" width="210" height="140" rx="28" fill="#FFFFFF" fill-opacity="0.28" stroke="url(#panelStroke)" />
    <rect x="1188" y="314" width="134" height="96" rx="24" fill="#FFFFFF" fill-opacity="0.22" stroke="url(#panelStroke)" />
    <rect x="852" y="720" width="188" height="116" rx="26" fill="#FFFFFF" fill-opacity="0.18" stroke="url(#panelStroke)" />
  </g>

  <g opacity="0.28">
    <path d="M988 282H1112" stroke="#E2E8F0" stroke-width="9" stroke-linecap="round" />
    <path d="M988 310H1078" stroke="#E2E8F0" stroke-width="7" stroke-linecap="round" />
    <path d="M988 338H1040" stroke="#60A5FA" stroke-width="7" stroke-linecap="round" />
    <path d="M1216 344H1280" stroke="#E2E8F0" stroke-width="8" stroke-linecap="round" />
    <path d="M1216 370H1258" stroke="#60A5FA" stroke-width="6" stroke-linecap="round" />
  </g>
</svg>
