<svg width="180" height="180" viewBox="0 0 180 180" fill="none" xmlns="http://www.w3.org/2000/svg">
  <defs>
    <linearGradient id="softnet-gradient" x1="32" y1="28" x2="140" y2="144" gradientUnits="userSpaceOnUse">
      <stop offset="0%" stop-color="#F8FBFF" />
      <stop offset="46%" stop-color="#9CCBFF" />
      <stop offset="100%" stop-color="#3B82F6" />
    </linearGradient>
    <radialGradient id="softnet-glow" cx="0" cy="0" r="1" gradientUnits="userSpaceOnUse" gradientTransform="translate(46 44) rotate(46) scale(118 112)">
      <stop stop-color="#93C5FD" stop-opacity="0.26" />
      <stop offset="1" stop-color="#93C5FD" stop-opacity="0" />
    </radialGradient>
    <clipPath id="softnet-clip">
      <rect width="180" height="180" rx="38" />
    </clipPath>
  </defs>

  <g clip-path="url(#softnet-clip)">
    <rect width="180" height="180" rx="38" fill="#0B0D12" />
    <rect width="180" height="180" rx="38" fill="url(#softnet-glow)" />
    <path d="M0 0H180" stroke="#FFFFFF" stroke-opacity="0.12" />

    <g opacity="0.26">
      <path d="M0 18H180" stroke="#FFFFFF" stroke-opacity="0.08" />
      <path d="M0 54H180" stroke="#FFFFFF" stroke-opacity="0.08" />
      <path d="M0 90H180" stroke="#FFFFFF" stroke-opacity="0.08" />
      <path d="M0 126H180" stroke="#FFFFFF" stroke-opacity="0.08" />
      <path d="M18 0V180" stroke="#FFFFFF" stroke-opacity="0.08" />
      <path d="M54 0V180" stroke="#FFFFFF" stroke-opacity="0.08" />
      <path d="M90 0V180" stroke="#FFFFFF" stroke-opacity="0.08" />
      <path d="M126 0V180" stroke="#FFFFFF" stroke-opacity="0.08" />
    </g>

    <g transform="translate(24 24)">
      <path
        d="M101.5 25.5C91.6 13.5 66.4 11.4 51.7 20.5C37.3 29.1 37.6 46.8 63.4 54.6C87.4 61.7 92.5 72.5 84.7 84.4C74.4 99.2 50.9 101.4 38.6 89.2"
        stroke="url(#softnet-gradient)"
        stroke-width="11.4"
        stroke-linecap="round"
        stroke-linejoin="round"
      />
      <path d="M101.5 25.5H116" stroke="#FFFFFF" stroke-opacity="0.62" stroke-width="6.5" stroke-linecap="round" />
      <path d="M29.8 89.2H44.6" stroke="#FFFFFF" stroke-opacity="0.48" stroke-width="6.5" stroke-linecap="round" />
      <circle cx="101.5" cy="25.5" r="8.4" fill="#F8FBFF" />
      <circle cx="63.4" cy="54.6" r="7.7" fill="#93C5FD" />
      <circle cx="38.6" cy="89.2" r="8.4" fill="#3B82F6" />
    </g>
  </g>
</svg>
